<svg xmlns="http://www.w3.org/2000/svg" viewBox="0 0 1000 525"><defs><style>.cls-1{fill:#fff;}.cls-2{fill:#f53024;}</style></defs><g id="Layer_2" data-name="Layer 2"><g id="Layer_1-2" data-name="Layer 1"><rect width="1000" height="525"/><path class="cls-1" d="M360.51,328.07q-3.86,3.58-11.56,3.59h-9.2v19.45h-4.57V305.48H349q7.64,0,11.52,3.59a13.6,13.6,0,0,1,0,19Zm-.85-9.47q0-4.56-2.55-6.92c-1.7-1.56-4.42-2.35-8.16-2.35h-9.2v18.41H349Q359.66,327.74,359.66,318.6Z"/><path class="cls-1" d="M381,348.6a21.36,21.36,0,0,1-8.12-8.29,25.91,25.91,0,0,1,0-24.09,21.29,21.29,0,0,1,8.12-8.29,23.83,23.83,0,0,1,23,0,21.17,21.17,0,0,1,8.1,8.29,26.14,26.14,0,0,1,0,24.09,21.24,21.24,0,0,1-8.1,8.29,23.83,23.83,0,0,1-23,0Zm20.63-3.37a16.63,16.63,0,0,0,6.4-6.75,23.31,23.31,0,0,0,0-20.4,16.67,16.67,0,0,0-6.4-6.72,18.95,18.95,0,0,0-18.28,0,16.67,16.67,0,0,0-6.4,6.72,23.31,23.31,0,0,0,0,20.4,16.63,16.63,0,0,0,6.4,6.75,18.95,18.95,0,0,0,18.28,0Z"/><path class="cls-1" d="M447.72,351.11l-11.3-19.06H428v19.06h-4.57V305.48h13.71q7.64,0,11.59,3.66a12.45,12.45,0,0,1,3.95,9.59,13,13,0,0,1-2.84,8.46,13.62,13.62,0,0,1-8.39,4.53l11.75,19.39ZM428,328.33h9.21q5.34,0,8.06-2.61a9.28,9.28,0,0,0,2.71-7,9.07,9.07,0,0,0-2.62-7q-2.61-2.44-8.22-2.45H428Z"/><path class="cls-1" d="M488.45,305.48v3.79H475.78v41.84h-4.57V309.27H458.49v-3.79Z"/><path class="cls-1" d="M520.37,305.48v3.79H500.26v17h17v3.79h-17v21h-4.57V305.48Z"/><path class="cls-1" d="M536.88,348.6a21.45,21.45,0,0,1-8.13-8.29,25.91,25.91,0,0,1,0-24.09,21.38,21.38,0,0,1,8.13-8.29,23.83,23.83,0,0,1,23,0,21.17,21.17,0,0,1,8.1,8.29,26.14,26.14,0,0,1,0,24.09,21.24,21.24,0,0,1-8.1,8.29,23.83,23.83,0,0,1-23,0Zm20.63-3.37a16.63,16.63,0,0,0,6.4-6.75,23.31,23.31,0,0,0,0-20.4,16.67,16.67,0,0,0-6.4-6.72,18.95,18.95,0,0,0-18.28,0,16.67,16.67,0,0,0-6.4,6.72,23.31,23.31,0,0,0,0,20.4,16.63,16.63,0,0,0,6.4,6.75,18.95,18.95,0,0,0,18.28,0Z"/><path class="cls-1" d="M583.88,347.39h16.38v3.72h-21V305.48h4.57Z"/><path class="cls-1" d="M611.36,305.48v45.63h-4.57V305.48Z"/><path class="cls-1" d="M630.75,348.6a21.45,21.45,0,0,1-8.13-8.29,25.91,25.91,0,0,1,0-24.09,21.38,21.38,0,0,1,8.13-8.29,23.83,23.83,0,0,1,23,0,21.17,21.17,0,0,1,8.1,8.29,26.22,26.22,0,0,1,0,24.09,21.24,21.24,0,0,1-8.1,8.29,23.83,23.83,0,0,1-23,0Zm20.63-3.37a16.6,16.6,0,0,0,6.39-6.75,23.31,23.31,0,0,0,0-20.4,16.65,16.65,0,0,0-6.39-6.72,18.95,18.95,0,0,0-18.28,0,16.67,16.67,0,0,0-6.4,6.72,23.31,23.31,0,0,0,0,20.4,16.63,16.63,0,0,0,6.4,6.75,18.95,18.95,0,0,0,18.28,0Z"/><path class="cls-1" d="M243.85,174.34v79.23h-19.3V221h-30v32.62h-19.3V174.34h19.3v31h30v-31Z"/><path class="cls-1" d="M305.92,239.57H276.35l-4.74,14h-20.2l28.67-79.23h22.34l28.67,79.23H310.66Zm-5-14.89-9.82-29-9.71,29Z"/><path class="cls-1" d="M409.54,253.57h-19.3L358,204.7v48.87h-19.3V174.34H358l32.28,49.09V174.34h19.3Z"/><path class="cls-1" d="M497.8,199.39a14.51,14.51,0,0,0-6.15-6,20.15,20.15,0,0,0-9.43-2.08q-9.36,0-15,6.15t-5.64,16.42q0,10.95,5.92,17.1t16.31,6.15a19.7,19.7,0,0,0,12-3.61A20.42,20.42,0,0,0,503,223.1H478.5V208.87h42v17.95a37.89,37.89,0,0,1-7.28,13.43,38.47,38.47,0,0,1-13,10.05,40.27,40.27,0,0,1-17.83,3.83A42.24,42.24,0,0,1,461.4,249a36.51,36.51,0,0,1-14.33-14.28,45.1,45.1,0,0,1,0-41.82,36.55,36.55,0,0,1,14.27-14.33,42,42,0,0,1,20.88-5.14q14.23,0,24,6.89a32.5,32.5,0,0,1,12.92,19.07Z"/><path class="cls-1" d="M579.4,239.57H549.83l-4.74,14h-20.2l28.67-79.23H575.9l28.67,79.23H584.14Zm-5-14.89-9.82-29-9.71,29Z"/><path class="cls-1" d="M703.56,174.34v79.23h-19.3V221h-30v32.62h-19.3V174.34h19.3v31h30v-31Z"/><path class="cls-1" d="M735.61,189.8v16h25.85v14.9H735.61v17.38h29.23v15.46H716.31V174.34h48.53V189.8Z"/><path class="cls-1" d="M795.54,189.8v16h25.85v14.9H795.54v17.38h29.24v15.46H776.24V174.34h48.54V189.8Z"/><polygon points="557.99 215.47 545.91 251.14 583.49 251.64 571.18 215.04 557.99 215.47"/><circle class="cls-2" cx="564.68" cy="240.64" r="9.5"/></g></g></svg>